<?xml version="1.0" standalone="no"?>
<!DOCTYPE svg PUBLIC "-//W3C//DTD SVG 20010904//EN"
 "http://www.w3.org/TR/2001/REC-SVG-20010904/DTD/svg10.dtd">
<svg version="1.0" xmlns="http://www.w3.org/2000/svg"
 width="225.000000pt" height="225.000000pt" viewBox="0 0 225.000000 225.000000"
 preserveAspectRatio="xMidYMid meet">
<metadata>
Created by potrace 1.11, written by Peter Selinger 2001-2013
</metadata>
<g transform="translate(0.000000,225.000000) scale(0.100000,-0.100000)"
fill="#000000" stroke="none">
<path d="M923 1988 c-429 -325 -423 -320 -434 -358 -7 -23 -9 -207 -7 -527 l3
-493 25 -24 c14 -13 144 -117 290 -230 l265 -206 58 0 58 0 272 211 c150 116
280 220 290 231 16 19 17 59 17 532 0 432 -2 515 -15 532 -12 17 -208 172
-518 407 -42 32 -56 37 -102 37 -52 0 -55 -2 -202 -112z m430 -249 c100 -72
192 -142 205 -156 18 -20 22 -35 22 -94 0 -38 -4 -69 -9 -69 -4 0 -107 72
-227 159 l-219 159 -50 -36 c-27 -20 -125 -92 -218 -159 -92 -68 -172 -123
-177 -123 -14 0 -12 121 3 148 6 12 98 85 202 162 254 186 224 185 468 9z
m-188 -557 c215 -70 396 -131 403 -135 13 -9 17 -123 4 -131 -8 -5 -866 272
-890 287 -12 8 -17 93 -6 120 7 19 -31 30 489 -141z m-260 -511 l219 -159 31
21 c16 12 112 81 213 155 101 73 189 135 197 139 12 4 15 -7 15 -62 0 -36 -4
-75 -10 -85 -5 -10 -97 -82 -204 -159 -258 -188 -224 -188 -483 0 -119 87
-198 151 -204 166 -11 30 -12 143 -1 143 4 0 107 -72 227 -159z"/>
</g>
</svg>
